<?xml version="1.0" encoding="utf-8"?>
<!-- Generator: Adobe Illustrator 18.1.0, SVG Export Plug-In . SVG Version: 6.00 Build 0)  -->
<svg version="1.1" xmlns="http://www.w3.org/2000/svg" xmlns:xlink="http://www.w3.org/1999/xlink" x="0px" y="0px"
	 viewBox="0 0 45 40" enable-background="new 0 0 45 40" xml:space="preserve">
<g id="Layer_1">
	<g>
		<path d="M9.8,10.8v-1c0-0.6,0.4-1,1-1h9.4l2.1,2H9.8z"/>
		<path d="M19.7,9.8L19.7,9.8l-8.9,0v0H19.7 M20.5,7.8h-9.8c-1.1,0-2,0.9-2,2v2h15.9L20.5,7.8L20.5,7.8z"/>
	</g>
	<g>
		<path d="M34.3,13.5v17H10.8v-17H34.3 M34.3,11.5H8.8v19c0,1.1,0.9,2,2,2h23.5c1.1,0,2-0.9,2-2v-17C36.3,12.4,35.4,11.5,34.3,11.5
			L34.3,11.5z"/>
	</g>
</g>
<g id="Layer_2">
	<g>
		<path d="M29.1,23.6l-1.9,2.9c-0.3,0.4-0.9,0.4-1.2,0l-1.9-2.9c-0.3-0.4,0.1-0.9,0.6-0.9h3.7C29.1,22.7,29.4,23.2,29.1,23.6z"/>
		<path d="M26.7,17.3L26.7,17.3c0.5,0,0.8,0.4,0.8,0.8v4.3c0,0.5-0.4,0.8-0.8,0.8h0c-0.5,0-0.8-0.4-0.8-0.8v-4.3
			C25.9,17.7,26.3,17.3,26.7,17.3z"/>
	</g>
	<g>
		<path d="M15.4,20.4l1.9-2.9c0.3-0.4,0.9-0.4,1.2,0l1.9,2.9c0.3,0.4-0.1,0.9-0.6,0.9H16C15.5,21.3,15.1,20.8,15.4,20.4z"/>
		<path d="M17.8,26.7L17.8,26.7c-0.5,0-0.8-0.4-0.8-0.8v-4.3c0-0.5,0.4-0.8,0.8-0.8h0c0.5,0,0.8,0.4,0.8,0.8v4.3
			C18.6,26.3,18.3,26.7,17.8,26.7z"/>
	</g>
</g>
</svg>
