<?xml version="1.0" encoding="utf-8"?>
<!-- Generator: Adobe Illustrator 18.1.0, SVG Export Plug-In . SVG Version: 6.00 Build 0)  -->
<svg version="1.1" xmlns="http://www.w3.org/2000/svg" xmlns:xlink="http://www.w3.org/1999/xlink" x="0px" y="0px"
	 viewBox="0 0 45 40" enable-background="new 0 0 45 40" xml:space="preserve">
<g id="guides" display="none">
</g>
<g id="Layer_2">
	<g>
		<path d="M26.6,12.5v2.4h-8.2v-2.4H26.6 M26.6,11.5h-8.2c-0.6,0-1,0.4-1,1v2.4c0,0.6,0.4,1,1,1h8.2c0.6,0,1-0.4,1-1v-2.4
			C27.6,12,27.1,11.5,26.6,11.5L26.6,11.5z"/>
	</g>
	<g>
		<path d="M20.1,23.6V26h-5.4v-2.4H20.1 M20.1,22.6h-5.4c-0.6,0-1,0.5-1,1V26c0,0.5,0.4,1,1,1h5.4c0.5,0,1-0.5,1-1v-2.4
			C21.1,23.1,20.6,22.6,20.1,22.6L20.1,22.6z"/>
	</g>
	<path fill="none" stroke="#000000" stroke-miterlimit="10" d="M16.9,23.1v-2.1c0-1.4,4.6-2.1,4.6-3.9v-1.9"/>
	<g>
		<path d="M30.3,23.7V26h-5.4v-2.4H30.3 M30.3,22.7h-5.4c-0.5,0-1,0.5-1,1V26c0,0.5,0.5,1,1,1h5.4c0.5,0,1-0.5,1-1v-2.4
			C31.3,23.1,30.9,22.7,30.3,22.7L30.3,22.7z"/>
	</g>
	<path fill="none" stroke="#000000" stroke-miterlimit="10" d="M23.7,15.2v2.1c0,1.4,4.6,2.1,4.6,3.9v1.9"/>
	<g>
		<text transform="matrix(1 0 0 1 5.1725 23.92)" font-family="'HelveticaNeue-LightExt'" font-size="17.9635">{</text>
		<text transform="matrix(1 0 0 1 33.5369 23.9051)" font-family="'HelveticaNeue-LightExt'" font-size="17.9635">}</text>
	</g>
</g>
</svg>
