<?xml version="1.0" encoding="utf-8"?>
<!-- Generator: Adobe Illustrator 18.1.1, SVG Export Plug-In . SVG Version: 6.00 Build 0)  -->
<svg version="1.1" xmlns="http://www.w3.org/2000/svg" xmlns:xlink="http://www.w3.org/1999/xlink" x="0px" y="0px"
	 viewBox="0 0 45 40" enable-background="new 0 0 45 40" xml:space="preserve">
<g id="guides" display="none">
</g>
<g id="Layer_2">
	<g>
		<text transform="matrix(1 0 0 1 5.1725 23.92)" font-family="'HelveticaNeue-LightExt'" font-size="17.9635">{</text>
		<text transform="matrix(1 0 0 1 33.5369 23.9051)" font-family="'HelveticaNeue-LightExt'" font-size="17.9635">}</text>
	</g>
	<g>
		
			<line fill="none" stroke="#000000" stroke-width="0.75" stroke-linecap="round" stroke-miterlimit="10" x1="27.8" y1="13.5" x2="25.9" y2="15.9"/>
		<path fill="none" stroke="#000000" stroke-width="0.75" stroke-linecap="round" stroke-miterlimit="10" d="M26.9,12.8l1.8-0.6
			c0.2-0.1,0.4,0.1,0.3,0.3l-0.3,1.8"/>
	</g>
	<g>
		
			<line fill="none" stroke="#000000" stroke-width="0.75" stroke-linecap="round" stroke-miterlimit="10" x1="17.9" y1="13.5" x2="19.8" y2="15.9"/>
		<path fill="none" stroke="#000000" stroke-width="0.75" stroke-linecap="round" stroke-miterlimit="10" d="M18.9,12.8l-1.8-0.6
			c-0.2-0.1-0.4,0.1-0.3,0.3l0.3,1.8"/>
	</g>
	<g>
		
			<line fill="none" stroke="#000000" stroke-width="0.75" stroke-linecap="round" stroke-miterlimit="10" x1="27.8" y1="25.1" x2="25.9" y2="22.7"/>
		<path fill="none" stroke="#000000" stroke-width="0.75" stroke-linecap="round" stroke-miterlimit="10" d="M26.9,25.8l1.8,0.6
			c0.2,0.1,0.4-0.1,0.3-0.3l-0.3-1.8"/>
	</g>
	<g>
		
			<line fill="none" stroke="#000000" stroke-width="0.75" stroke-linecap="round" stroke-miterlimit="10" x1="17.9" y1="25.1" x2="19.8" y2="22.7"/>
		<path fill="none" stroke="#000000" stroke-width="0.75" stroke-linecap="round" stroke-miterlimit="10" d="M18.9,25.8l-1.8,0.6
			c-0.2,0.1-0.4-0.1-0.3-0.3l0.3-1.8"/>
	</g>
	<circle cx="22.6" cy="19.3" r="2.4"/>
</g>
</svg>
