<?xml version="1.0" encoding="utf-8"?>
<!-- Generator: Adobe Illustrator 18.1.1, SVG Export Plug-In . SVG Version: 6.00 Build 0)  -->
<svg version="1.1" xmlns="http://www.w3.org/2000/svg" xmlns:xlink="http://www.w3.org/1999/xlink" x="0px" y="0px"
	 viewBox="0 0 45 40" enable-background="new 0 0 45 40" xml:space="preserve">
<g id="guides" display="none">
</g>
<g id="Layer_2">
	<text transform="matrix(1 0 0 1 5.1725 23.92)" display="none" font-family="'HelveticaNeue-ThinExt'" font-size="17.9635">{</text>
	<text transform="matrix(1 0 0 1 33.6725 23.9201)" display="none" font-family="'HelveticaNeue-ThinExt'" font-size="17.9635">}</text>
	<g>
		<text transform="matrix(1 0 0 1 5.1725 23.92)" font-family="'HelveticaNeue-LightExt'" font-size="17.9635">{</text>
		<text transform="matrix(1 0 0 1 33.5369 23.9051)" font-family="'HelveticaNeue-LightExt'" font-size="17.9635">}</text>
	</g>
	
		<line fill="none" stroke="#000000" stroke-width="2" stroke-linecap="round" stroke-miterlimit="10" x1="29.5" y1="12.7" x2="21.4" y2="20.7"/>
	<path d="M50.2,38.2c0,1.5-3.4,2.7-3.5,2.5c-0.2-0.3,0.4-0.6,0.3-1.6c0-0.5-0.3-0.6-0.3-1.1c0-0.7,0.8-1.5,1.7-1.5
		C49.4,36.5,50.2,37.4,50.2,38.2z"/>
	<path d="M19.2,25.3c-1.5,1.5-5.5,0-5.5-0.3c0.1-0.5,0.9-0.3,2-1.4c0.6-0.6,0.4-0.9,0.9-1.4c0.7-0.7,2.2-0.9,3-0.1
		C20.3,22.9,20,24.5,19.2,25.3z"/>
</g>
</svg>
